<svg width="109" height="34" viewBox="0 0 109 34" fill="none" xmlns="http://www.w3.org/2000/svg">
<path d="M105.952 8.83997C106.738 8.83997 107.388 9.09685 107.902 9.61063C108.415 10.1244 108.672 10.7893 108.672 11.6053V30.7813C108.672 31.5671 108.415 32.232 107.902 32.776C107.388 33.2897 106.738 33.5466 105.952 33.5466C105.166 33.5466 104.517 33.2897 104.003 32.776C103.489 32.232 103.232 31.5671 103.232 30.7813V28.56L104.229 28.968C104.229 29.3609 104.018 29.8444 103.595 30.4186C103.172 30.9626 102.597 31.5066 101.872 32.0506C101.147 32.5946 100.286 33.0631 99.2882 33.456C98.3211 33.8186 97.2633 34 96.1148 34C94.0295 34 92.1406 33.4711 90.4482 32.4133C88.7557 31.3253 87.4108 29.8444 86.4135 27.9706C85.4464 26.0666 84.9628 23.8906 84.9628 21.4426C84.9628 18.9644 85.4464 16.7884 86.4135 14.9146C87.4108 13.0106 88.7406 11.5297 90.4028 10.472C92.0651 9.38396 93.9086 8.83997 95.9335 8.83997C97.2331 8.83997 98.4268 9.03641 99.5148 9.4293C100.603 9.82219 101.54 10.3209 102.325 10.9253C103.141 11.5297 103.761 12.1493 104.184 12.784C104.638 13.3884 104.864 13.9022 104.864 14.3253L103.232 14.9146V11.6053C103.232 10.8195 103.489 10.1697 104.003 9.65597C104.517 9.11197 105.166 8.83997 105.952 8.83997ZM96.7948 29.0133C98.1246 29.0133 99.2882 28.6809 100.285 28.016C101.283 27.3511 102.054 26.4444 102.598 25.296C103.172 24.1475 103.459 22.8631 103.459 21.4426C103.459 19.992 103.172 18.6924 102.598 17.544C102.054 16.3955 101.283 15.4889 100.285 14.824C99.2882 14.1591 98.1246 13.8266 96.7948 13.8266C95.4953 13.8266 94.3468 14.1591 93.3495 14.824C92.3522 15.4889 91.5664 16.3955 90.9922 17.544C90.4482 18.6924 90.1762 19.992 90.1762 21.4426C90.1762 22.8631 90.4482 24.1475 90.9922 25.296C91.5664 26.4444 92.3522 27.3511 93.3495 28.016C94.3468 28.6809 95.4953 29.0133 96.7948 29.0133Z" fill="#0E3889"/>
<path d="M64.5037 9.29333C65.3801 9.29333 66.1206 9.67111 66.725 10.4267L81.8663 29.24C82.2592 29.7236 82.4557 30.2676 82.4557 30.872C82.4557 31.6276 82.1686 32.2773 81.5943 32.8213C81.0201 33.3653 80.3855 33.6373 79.6903 33.6373C78.8139 33.6373 78.0735 33.2444 77.469 32.4587L62.3277 13.6453C61.9348 13.1618 61.7383 12.6178 61.7383 12.0133C61.7383 11.2276 62.0103 10.5778 62.5543 10.064C63.1286 9.55023 63.7783 9.29333 64.5037 9.29333ZM64.549 33.592C63.9446 33.592 63.3401 33.3653 62.7357 32.912C62.1615 32.4284 61.8743 31.8542 61.8743 31.1893C61.8743 30.5849 62.101 30.0107 62.5543 29.4667L69.4903 20.9893L72.2103 25.5227L66.725 32.4587C66.1508 33.2142 65.4255 33.592 64.549 33.592ZM79.645 9.29333C80.3703 9.29333 80.9748 9.55023 81.4583 10.064C81.9721 10.5476 82.229 11.1067 82.229 11.7413C82.229 12.0436 82.1837 12.3458 82.093 12.648C82.0023 12.9502 81.8361 13.2373 81.5943 13.5093L74.749 21.8507L71.893 17.9067L77.469 10.5173C78.0735 9.70133 78.7988 9.29333 79.645 9.29333Z" fill="#0E3889"/>
<path d="M48.6894 34C46.1205 34 43.8841 33.4711 41.9801 32.4133C40.1063 31.3253 38.6556 29.8595 37.6281 28.016C36.6307 26.1724 36.1321 24.0871 36.1321 21.76C36.1321 19.04 36.6761 16.728 37.7641 14.824C38.8823 12.8897 40.333 11.4089 42.1161 10.3813C43.8992 9.35374 45.7881 8.83997 47.7827 8.83997C49.3241 8.83997 50.7747 9.1573 52.1347 9.79196C53.525 10.4266 54.749 11.3031 55.8068 12.4213C56.8645 13.5093 57.6956 14.7786 58.3001 16.2293C58.9348 17.68 59.2521 19.2213 59.2521 20.8533C59.2219 21.5786 58.9347 22.168 58.3908 22.6213C57.8468 23.0746 57.2121 23.3013 56.4868 23.3013H39.1694L37.8094 18.768H54.4467L53.4494 19.6746V18.4506C53.389 17.5742 53.0716 16.7884 52.4974 16.0933C51.9534 15.3982 51.2583 14.8542 50.4121 14.4613C49.5961 14.0382 48.7196 13.8266 47.7827 13.8266C46.8761 13.8266 46.0299 13.9475 45.2441 14.1893C44.4583 14.4311 43.7783 14.8391 43.2041 15.4133C42.6299 15.9875 42.1765 16.7582 41.8441 17.7253C41.5116 18.6924 41.3454 19.9164 41.3454 21.3973C41.3454 23.0293 41.6779 24.4195 42.3427 25.568C43.0379 26.6862 43.9143 27.5475 44.9721 28.152C46.0601 28.7262 47.2085 29.0133 48.4174 29.0133C49.5356 29.0133 50.4272 28.9226 51.0921 28.7413C51.757 28.56 52.2859 28.3484 52.6787 28.1066C53.1019 27.8346 53.4796 27.608 53.8121 27.4266C54.3561 27.1546 54.8699 27.0186 55.3534 27.0186C56.0183 27.0186 56.5623 27.2453 56.9854 27.6986C57.4387 28.152 57.6654 28.6809 57.6654 29.2853C57.6654 30.1013 57.2423 30.8417 56.3961 31.5066C55.6103 32.1715 54.5072 32.7609 53.0867 33.2746C51.6663 33.7582 50.2005 34 48.6894 34Z" fill="#0E3889"/>
<path d="M31.3827 30.7813C31.3827 31.5671 31.1107 32.232 30.5667 32.776C30.0529 33.2898 29.4031 33.5467 28.6174 33.5467C27.8618 33.5467 27.2271 33.2898 26.7134 32.776C26.1996 32.232 25.9427 31.5671 25.9427 30.7813V2.76533C25.9427 1.97955 26.1996 1.32978 26.7134 0.815997C27.2574 0.271999 27.9222 0 28.708 0C29.4938 0 30.1285 0.271999 30.612 0.815997C31.1258 1.32978 31.3827 1.97955 31.3827 2.76533V30.7813Z" fill="#0E3889"/>
<path d="M2.76533 1.81335H17.952C18.7378 1.81335 19.3876 2.07024 19.9013 2.58402C20.4453 3.06758 20.7173 3.70224 20.7173 4.48802C20.7173 5.24358 20.4453 5.86313 19.9013 6.34669C19.3876 6.80002 18.7378 7.02669 17.952 7.02669H5.25867L5.66667 6.25602V15.096L5.304 14.7334H15.912C16.6978 14.7334 17.3476 14.9902 17.8613 15.504C18.4053 15.9876 18.6773 16.6222 18.6773 17.408C18.6773 18.1636 18.4053 18.7831 17.8613 19.2667C17.3476 19.72 16.6978 19.9467 15.912 19.9467H5.44L5.66667 19.584V28.7414L5.304 28.3334H17.952C18.7378 28.3334 19.3876 28.6054 19.9013 29.1494C20.4453 29.6631 20.7173 30.2676 20.7173 30.9627C20.7173 31.7182 20.4453 32.3378 19.9013 32.8214C19.3876 33.3049 18.7378 33.5467 17.952 33.5467H2.76533C1.97956 33.5467 1.31467 33.2898 0.770667 32.776C0.256889 32.232 0 31.5671 0 30.7814V4.57869C0 3.79291 0.256889 3.14313 0.770667 2.62935C1.31467 2.08535 1.97956 1.81335 2.76533 1.81335Z" fill="#0E3889"/>
</svg>
